# xmcd
#
# Track frame offsets: 
#        150
#        16042
#        33522
#        52185
#        74715
#        83082
#        100322
#        116797
#        128975
#        144002
#        154890
#        173727
#        186162
#        201160
#        212675
#        226992
#
# Disc length: 3292 seconds
#
# Revision: 1
# Processed by: cddbd v1.5.2PL0 Copyright (c) Steve Scherf et al.
# Submitted via: ExactAudioCopy v0.99pb5
#
DISCID=e10cda10
DTITLE=Noel Freidline Quintet - Noel
DYEAR=1900
DGENRE=nOEL fREIDLINE fREE LiON rECORDS
TTITLE0=Jingle Bells
TTITLE1=The Christmas Song
TTITLE2=Here We Come A Wassailing
TTITLE3=Christmastime is Here
TTITLE4=Deck Us All With Boston Charlie
TTITLE5=Santa Claus is Coming to Town
TTITLE6=O Holy Night
TTITLE7=Angels We Have Heard On High
TTITLE8=Little Drummer Boy
TTITLE9=Oh Tannenbaum
TTITLE10=We Three Kings
TTITLE11=White Christmas
TTITLE12=Baby It's Cold Outside
TTITLE13=Christmas is a Lonely Time This Year
TTITLE14=Linus and Lucy
TTITLE15=Have Yourself a Merry Little Christmas
EXTD=
EXTT0=
EXTT1=
EXTT2=
EXTT3=
EXTT4=
EXTT5=
EXTT6=
EXTT7=
EXTT8=
EXTT9=
EXTT10=
EXTT11=
EXTT12=
EXTT13=
EXTT14=
EXTT15=
PLAYORDER=
